<?xml version="1.0" encoding="UTF-8"?>
<svg width="93px" height="22px" viewBox="0 0 93 22" version="1.1" xmlns="http://www.w3.org/2000/svg" xmlns:xlink="http://www.w3.org/1999/xlink">
    <title>export layer</title>
    <g id="Page-1" stroke="none" stroke-width="1" fill="none" fill-rule="evenodd">
        <g id="aktagon-logo-white">
            <path d="M31.9052734,19.1435547 C32.3427734,19.1435547 32.7358398,19.0444336 33.0844727,18.8461914 C33.4331055,18.6479492 33.7304688,18.3938802 33.9765625,18.0839844 C33.9947917,18.234375 34.0232747,18.3847656 34.0620117,18.5351562 C34.1007487,18.6855469 34.1429036,18.8404948 34.1884766,19 L34.1884766,19 L36.4375,19 L36.4375,17.9472656 L35.6855469,17.8515625 C35.6764323,17.7604167 35.6707357,17.6669922 35.668457,17.5712891 C35.6661784,17.4755859 35.6650391,17.3776042 35.6650391,17.2773438 L35.6650391,14.0166016 C35.6650391,13.1962891 35.3950195,12.5662435 34.8549805,12.1264648 C34.3149414,11.6866862 33.5755208,11.4667969 32.6367188,11.4667969 C32.0898438,11.4667969 31.593099,11.5362956 31.1464844,11.675293 C30.6998698,11.8142904 30.2942708,12.0022786 29.9296875,12.2392578 L29.9296875,12.2392578 L29.9433594,14.0644531 L31.2080078,14.0644531 L31.3652344,13.0664062 C31.5201823,12.952474 31.695638,12.8647461 31.8916016,12.8032227 C32.0875651,12.7416992 32.313151,12.7109375 32.5683594,12.7109375 C33.014974,12.7109375 33.3556315,12.8271484 33.590332,13.0595703 C33.8250326,13.2919922 33.9423828,13.6041667 33.9423828,13.9960938 L33.9423828,13.9960938 L33.9423828,14.6181641 L32.8144531,14.6181641 C32.1126302,14.6181641 31.515625,14.7172852 31.0234375,14.9155273 C30.53125,15.1137695 30.1575521,15.3883464 29.9023438,15.7392578 C29.6471354,16.0901693 29.5195312,16.4980469 29.5195312,16.9628906 C29.5195312,17.6419271 29.7291667,18.1751302 30.1484375,18.5625 C30.5677083,18.9498698 31.1533203,19.1435547 31.9052734,19.1435547 Z M32.2949219,17.8105469 C31.953125,17.8105469 31.6910807,17.7330729 31.5087891,17.578125 C31.3264974,17.4231771 31.2353516,17.2021484 31.2353516,16.9150391 C31.2353516,16.5960286 31.3663737,16.3168945 31.628418,16.0776367 C31.8904622,15.8383789 32.2789714,15.71875 32.7939453,15.71875 L32.7939453,15.71875 L33.9423828,15.71875 L33.9423828,16.9560547 C33.7919922,17.2021484 33.5664062,17.4060872 33.265625,17.5678711 C32.9648438,17.7296549 32.641276,17.8105469 32.2949219,17.8105469 Z M40.9047789,19 L40.9047789,17.9472656 L39.9409117,17.7421875 L39.94,16.775 L40.992,15.788 L42.5454039,17.8378906 L42.5659117,17.8652344 L41.9164976,17.9814453 L41.9164976,19 L45.4711851,19 L45.4711851,17.9472656 L44.4868101,17.7558594 L42.135,14.716 L44.0903258,12.8818359 L45.0405211,12.6630859 L45.0405211,11.6035156 L41.4721617,11.6035156 L41.4721617,12.65625 L42.2446226,12.7587891 L42.2241148,12.7861328 L39.94,14.954 L39.9409117,8.3359375 L37.1313414,8.3359375 L37.1313414,9.39550781 L38.2250914,9.60058594 L38.2250914,17.7421875 L37.1928648,17.9472656 L37.1928648,19 L40.9047789,19 Z M48.9833838,19.1298828 C49.2203629,19.1298828 49.467596,19.109375 49.725083,19.0683594 C49.98257,19.0273438 50.2115739,18.9772135 50.4120947,18.9179688 L50.4120947,18.9179688 L50.2343603,17.7080078 C50.1386572,17.7307943 50.0121924,17.7535807 49.8549658,17.7763672 C49.6977392,17.7991536 49.5553239,17.8105469 49.4277197,17.8105469 C49.2044124,17.8105469 49.0278174,17.7387695 48.8979346,17.5952148 C48.7680517,17.4516602 48.7031103,17.2226562 48.7031103,16.9082031 L48.7031103,16.9082031 L48.7031103,12.8339844 L50.166001,12.8339844 L50.166001,11.6035156 L48.7031103,11.6035156 L48.7031103,9.80566406 L46.98729,9.80566406 L46.98729,11.6035156 L45.9072119,11.6035156 L45.9072119,12.8339844 L46.98729,12.8339844 L46.98729,16.9082031 C46.98729,17.6829427 47.1627458,18.2469076 47.5136572,18.6000977 C47.8645687,18.9532878 48.3544775,19.1298828 48.9833838,19.1298828 Z M53.6513511,19.1435547 C54.0888511,19.1435547 54.4819175,19.0444336 54.8305503,18.8461914 C55.1791831,18.6479492 55.4765464,18.3938802 55.7226402,18.0839844 C55.7408693,18.234375 55.7693524,18.3847656 55.8080894,18.5351562 C55.8468264,18.6855469 55.8889813,18.8404948 55.9345542,19 L55.9345542,19 L58.1835777,19 L58.1835777,17.9472656 L57.4316245,17.8515625 C57.4225099,17.7604167 57.4168133,17.6669922 57.4145347,17.5712891 C57.412256,17.4755859 57.4111167,17.3776042 57.4111167,17.2773438 L57.4111167,14.0166016 C57.4111167,13.1962891 57.1410972,12.5662435 56.6010581,12.1264648 C56.0610191,11.6866862 55.3215985,11.4667969 54.3827964,11.4667969 C53.8359214,11.4667969 53.3391766,11.5362956 52.892562,11.675293 C52.4459474,11.8142904 52.0403485,12.0022786 51.6757652,12.2392578 L51.6757652,12.2392578 L51.689437,14.0644531 L52.9540855,14.0644531 L53.111312,13.0664062 C53.2662599,12.952474 53.4417157,12.8647461 53.6376792,12.8032227 C53.8336428,12.7416992 54.0592287,12.7109375 54.314437,12.7109375 C54.7610516,12.7109375 55.1017092,12.8271484 55.3364097,13.0595703 C55.5711102,13.2919922 55.6884605,13.6041667 55.6884605,13.9960938 L55.6884605,13.9960938 L55.6884605,14.6181641 L54.5605308,14.6181641 C53.8587079,14.6181641 53.2617027,14.7172852 52.7695152,14.9155273 C52.2773277,15.1137695 51.9036297,15.3883464 51.6484214,15.7392578 C51.3932131,16.0901693 51.2656089,16.4980469 51.2656089,16.9628906 C51.2656089,17.6419271 51.4752443,18.1751302 51.8945152,18.5625 C52.313786,18.9498698 52.899398,19.1435547 53.6513511,19.1435547 Z M54.0409995,17.8105469 C53.6992027,17.8105469 53.4371584,17.7330729 53.2548667,17.578125 C53.0725751,17.4231771 52.9814292,17.2021484 52.9814292,16.9150391 C52.9814292,16.5960286 53.1124514,16.3168945 53.3744956,16.0776367 C53.6365399,15.8383789 54.025049,15.71875 54.540023,15.71875 L54.540023,15.71875 L55.6884605,15.71875 L55.6884605,16.9560547 C55.5380698,17.2021484 55.3124839,17.4060872 55.0117027,17.5678711 C54.7109214,17.7296549 54.3873537,17.8105469 54.0409995,17.8105469 Z M64.0932394,11.6035156 L63.9633566,12.5332031 C63.7309347,12.1914062 63.4483826,11.9282227 63.1157003,11.7436523 C62.783018,11.559082 62.3910909,11.4667969 61.9399191,11.4667969 C61.3429138,11.4667969 60.8290792,11.6308594 60.3984151,11.9589844 C59.9677511,12.2871094 59.6373474,12.7451172 59.4072042,13.3330078 C59.177061,13.9208984 59.0619894,14.6090495 59.0619894,15.3974609 L59.0619894,15.3974609 L59.0619894,15.5410156 C59.0619894,16.2565104 59.177061,16.8854167 59.4072042,17.4277344 C59.6373474,17.9700521 59.9700297,18.3916016 60.4052511,18.6923828 C60.8404724,18.9931641 61.3588644,19.1435547 61.9604269,19.1435547 C62.3660258,19.1435547 62.7260519,19.0672201 63.040505,18.9145508 C63.3549581,18.7618815 63.626117,18.5397135 63.8539816,18.2480469 L63.8539816,18.2480469 L63.8539816,18.8291016 C63.8539816,19.398763 63.7229594,19.839681 63.4609151,20.1518555 C63.1988709,20.4640299 62.7852967,20.6201172 62.2201925,20.6201172 C61.9057394,20.6201172 61.5730571,20.5791016 61.2221456,20.4970703 C60.8712342,20.4150391 60.5499451,20.3079427 60.2582784,20.1757812 L60.2582784,20.1757812 L59.9028097,21.4335938 C60.2400493,21.6067708 60.630837,21.7423503 61.075173,21.840332 C61.5195089,21.9383138 61.9239685,21.9873047 62.2885519,21.9873047 C62.9767029,21.9873047 63.5668722,21.8585612 64.0590597,21.6010742 C64.5512472,21.3435872 64.9272237,20.9790039 65.1869894,20.5073242 C65.446755,20.0356445 65.5766378,19.4785156 65.5766378,18.8359375 L65.5766378,18.8359375 L65.576,12.854 L66.4653097,12.6630859 L66.4653097,11.6035156 L64.6196066,11.6035156 L64.0932394,11.6035156 Z M62.4252706,17.7832031 C61.8556092,17.7832031 61.4397563,17.5804036 61.177712,17.1748047 C60.9156678,16.7692057 60.7846456,16.2246094 60.7846456,15.5410156 L60.7846456,15.5410156 L60.7846456,15.3974609 C60.7846456,14.8870443 60.8427511,14.4392904 60.958962,14.0541992 C61.075173,13.6691081 61.255186,13.3683268 61.4990011,13.1518555 C61.7428162,12.9353841 62.0538513,12.8271484 62.4321066,12.8271484 C62.7556743,12.8271484 63.0359477,12.9012044 63.2729269,13.0493164 C63.509906,13.1974284 63.7035909,13.4013672 63.8539816,13.6611328 L63.8539816,13.6611328 L63.8539816,16.9560547 C63.7035909,17.2249349 63.5110454,17.430013 63.2763448,17.5712891 C63.0416443,17.7125651 62.7579529,17.7832031 62.4252706,17.7832031 Z M70.4911766,19.1435547 C71.1975568,19.1435547 71.8048159,18.9840495 72.3129539,18.6650391 C72.821092,18.3460286 73.2118797,17.902832 73.4853172,17.3354492 C73.7587547,16.7680664 73.8954735,16.1152344 73.8954735,15.3769531 L73.8954735,15.3769531 L73.8954735,15.2333984 C73.8954735,14.4951172 73.7587547,13.8434245 73.4853172,13.2783203 C73.2118797,12.7132161 72.8199526,12.2700195 72.309536,11.9487305 C71.7991193,11.6274414 71.1884422,11.4667969 70.4775047,11.4667969 C69.7756818,11.4667969 69.169562,11.6285807 68.6591454,11.9521484 C68.1487287,12.2757161 67.7568016,12.7200521 67.4833641,13.2851562 C67.2099266,13.8502604 67.0732079,14.4996745 67.0732079,15.2333984 L67.0732079,15.2333984 L67.0732079,15.3769531 C67.0732079,16.1152344 67.2099266,16.7680664 67.4833641,17.3354492 C67.7568016,17.902832 68.1487287,18.3460286 68.6591454,18.6650391 C69.169562,18.9840495 69.7802391,19.1435547 70.4911766,19.1435547 Z M70.4911766,17.8173828 C70.1083641,17.8173828 69.790493,17.7137044 69.5375633,17.5063477 C69.2846336,17.2989909 69.0977847,17.0118815 68.9770164,16.6450195 C68.8562482,16.2781576 68.7958641,15.8554688 68.7958641,15.3769531 L68.7958641,15.3769531 L68.7958641,15.2333984 C68.7958641,14.7594401 68.8562482,14.3401693 68.9770164,13.9755859 C69.0977847,13.6110026 69.2834943,13.3238932 69.5341454,13.1142578 C69.7847964,12.9046224 70.0992495,12.7998047 70.4775047,12.7998047 C70.8648745,12.7998047 71.1838849,12.9046224 71.434536,13.1142578 C71.685187,13.3238932 71.872036,13.6110026 71.9950829,13.9755859 C72.1181297,14.3401693 72.1796532,14.7594401 72.1796532,15.2333984 L72.1796532,15.2333984 L72.1796532,15.3769531 C72.1796532,15.8554688 72.1181297,16.2781576 71.9950829,16.6450195 C71.872036,17.0118815 71.6863263,17.2989909 71.4379539,17.5063477 C71.1895816,17.7137044 70.8739891,17.8173828 70.4911766,17.8173828 Z M78.488238,19 L78.488238,17.9472656 L77.5517145,17.7421875 L77.5517145,13.6679688 C77.7066625,13.4036458 77.9083226,13.1974284 78.156695,13.0493164 C78.4050674,12.9012044 78.6955947,12.8271484 79.028277,12.8271484 C79.4703343,12.8271484 79.8030166,12.9444987 80.0263239,13.1791992 C80.2496312,13.4138997 80.3612849,13.8115234 80.3612849,14.3720703 L80.3612849,14.3720703 L80.3612849,17.7421875 L79.3974177,17.9472656 L79.3974177,19 L83.1093317,19 L83.1093317,17.9472656 L82.0839411,17.7421875 L82.0839411,14.3583984 C82.0839411,13.3649089 81.872027,12.6346029 81.4481989,12.1674805 C81.0243708,11.7003581 80.4319229,11.4667969 79.6708552,11.4667969 C79.2060114,11.4667969 78.7901585,11.5727539 78.4232966,11.784668 C78.0564346,11.996582 77.7499567,12.2939453 77.503863,12.6767578 L77.503863,12.6767578 L77.4149958,11.6035156 L74.7489802,11.6035156 L74.7489802,12.6630859 L75.8290583,12.8681641 L75.8290583,17.7421875 L74.8036677,17.9472656 L74.8036677,19 L78.488238,19 Z" id="aktagon" fill="#FFFFFF" fill-rule="nonzero"></path>
            <circle id="Oval" stroke="#FFFFFF" fill-opacity="0" fill="#222222" cx="11" cy="12" r="8.5"></circle>
            <path d="M9.1953125,19 L9.1953125,17.6328125 L8.40625,17.4921875 L8.90625,15.9296875 L12.90625,15.9296875 L13.40625,17.4921875 L12.6171875,17.6328125 L12.6171875,19 L16.4921875,19 L16.4921875,17.6328125 L15.6796875,17.515625 L12.0859375,7.625 L9.75,7.625 L6.1328125,17.515625 L5.3203125,17.6328125 L5.3203125,19 L9.1953125,19 Z M12.3671875,14.25 L9.4453125,14.25 L10.765625,10.375 L10.8828125,10.0078125 L10.9296875,10.0078125 L11.0390625,10.3515625 L12.3671875,14.25 Z" id="A" fill="#FFFFFF" fill-rule="nonzero"></path>
        </g>
    </g>
</svg>