<?xml version="1.0" encoding="UTF-8"?>
<svg width="93px" height="22px" viewBox="0 0 93 22" version="1.1" xmlns="http://www.w3.org/2000/svg" xmlns:xlink="http://www.w3.org/1999/xlink">
    <title>export layer</title>
    <g id="Page-1" stroke="none" stroke-width="1" fill="none" fill-rule="evenodd">
        <g id="aktagon-logo">
            <path d="M29.9052734,19.1435547 C30.3427734,19.1435547 30.7358398,19.0444336 31.0844727,18.8461914 C31.4331055,18.6479492 31.7304688,18.3938802 31.9765625,18.0839844 C31.9947917,18.234375 32.0232747,18.3847656 32.0620117,18.5351562 C32.1007487,18.6855469 32.1429036,18.8404948 32.1884766,19 L32.1884766,19 L34.4375,19 L34.4375,17.9472656 L33.6855469,17.8515625 C33.6764323,17.7604167 33.6707357,17.6669922 33.668457,17.5712891 C33.6661784,17.4755859 33.6650391,17.3776042 33.6650391,17.2773438 L33.6650391,14.0166016 C33.6650391,13.1962891 33.3950195,12.5662435 32.8549805,12.1264648 C32.3149414,11.6866862 31.5755208,11.4667969 30.6367188,11.4667969 C30.0898438,11.4667969 29.593099,11.5362956 29.1464844,11.675293 C28.6998698,11.8142904 28.2942708,12.0022786 27.9296875,12.2392578 L27.9296875,12.2392578 L27.9433594,14.0644531 L29.2080078,14.0644531 L29.3652344,13.0664062 C29.5201823,12.952474 29.695638,12.8647461 29.8916016,12.8032227 C30.0875651,12.7416992 30.313151,12.7109375 30.5683594,12.7109375 C31.014974,12.7109375 31.3556315,12.8271484 31.590332,13.0595703 C31.8250326,13.2919922 31.9423828,13.6041667 31.9423828,13.9960938 L31.9423828,13.9960938 L31.9423828,14.6181641 L30.8144531,14.6181641 C30.1126302,14.6181641 29.515625,14.7172852 29.0234375,14.9155273 C28.53125,15.1137695 28.1575521,15.3883464 27.9023438,15.7392578 C27.6471354,16.0901693 27.5195312,16.4980469 27.5195312,16.9628906 C27.5195312,17.6419271 27.7291667,18.1751302 28.1484375,18.5625 C28.5677083,18.9498698 29.1533203,19.1435547 29.9052734,19.1435547 Z M30.2949219,17.8105469 C29.953125,17.8105469 29.6910807,17.7330729 29.5087891,17.578125 C29.3264974,17.4231771 29.2353516,17.2021484 29.2353516,16.9150391 C29.2353516,16.5960286 29.3663737,16.3168945 29.628418,16.0776367 C29.8904622,15.8383789 30.2789714,15.71875 30.7939453,15.71875 L30.7939453,15.71875 L31.9423828,15.71875 L31.9423828,16.9560547 C31.7919922,17.2021484 31.5664062,17.4060872 31.265625,17.5678711 C30.9648438,17.7296549 30.641276,17.8105469 30.2949219,17.8105469 Z M38.9047789,19 L38.9047789,17.9472656 L37.9409117,17.7421875 L37.94,16.775 L38.992,15.788 L40.5454039,17.8378906 L40.5659117,17.8652344 L39.9164976,17.9814453 L39.9164976,19 L43.4711851,19 L43.4711851,17.9472656 L42.4868101,17.7558594 L40.135,14.716 L42.0903258,12.8818359 L43.0405211,12.6630859 L43.0405211,11.6035156 L39.4721617,11.6035156 L39.4721617,12.65625 L40.2446226,12.7587891 L40.2241148,12.7861328 L37.94,14.954 L37.9409117,8.3359375 L35.1313414,8.3359375 L35.1313414,9.39550781 L36.2250914,9.60058594 L36.2250914,17.7421875 L35.1928648,17.9472656 L35.1928648,19 L38.9047789,19 Z M46.9833838,19.1298828 C47.2203629,19.1298828 47.467596,19.109375 47.725083,19.0683594 C47.98257,19.0273438 48.2115739,18.9772135 48.4120947,18.9179688 L48.4120947,18.9179688 L48.2343603,17.7080078 C48.1386572,17.7307943 48.0121924,17.7535807 47.8549658,17.7763672 C47.6977392,17.7991536 47.5553239,17.8105469 47.4277197,17.8105469 C47.2044124,17.8105469 47.0278174,17.7387695 46.8979346,17.5952148 C46.7680517,17.4516602 46.7031103,17.2226562 46.7031103,16.9082031 L46.7031103,16.9082031 L46.7031103,12.8339844 L48.166001,12.8339844 L48.166001,11.6035156 L46.7031103,11.6035156 L46.7031103,9.80566406 L44.98729,9.80566406 L44.98729,11.6035156 L43.9072119,11.6035156 L43.9072119,12.8339844 L44.98729,12.8339844 L44.98729,16.9082031 C44.98729,17.6829427 45.1627458,18.2469076 45.5136572,18.6000977 C45.8645687,18.9532878 46.3544775,19.1298828 46.9833838,19.1298828 Z M51.6513511,19.1435547 C52.0888511,19.1435547 52.4819175,19.0444336 52.8305503,18.8461914 C53.1791831,18.6479492 53.4765464,18.3938802 53.7226402,18.0839844 C53.7408693,18.234375 53.7693524,18.3847656 53.8080894,18.5351562 C53.8468264,18.6855469 53.8889813,18.8404948 53.9345542,19 L53.9345542,19 L56.1835777,19 L56.1835777,17.9472656 L55.4316245,17.8515625 C55.4225099,17.7604167 55.4168133,17.6669922 55.4145347,17.5712891 C55.412256,17.4755859 55.4111167,17.3776042 55.4111167,17.2773438 L55.4111167,14.0166016 C55.4111167,13.1962891 55.1410972,12.5662435 54.6010581,12.1264648 C54.0610191,11.6866862 53.3215985,11.4667969 52.3827964,11.4667969 C51.8359214,11.4667969 51.3391766,11.5362956 50.892562,11.675293 C50.4459474,11.8142904 50.0403485,12.0022786 49.6757652,12.2392578 L49.6757652,12.2392578 L49.689437,14.0644531 L50.9540855,14.0644531 L51.111312,13.0664062 C51.2662599,12.952474 51.4417157,12.8647461 51.6376792,12.8032227 C51.8336428,12.7416992 52.0592287,12.7109375 52.314437,12.7109375 C52.7610516,12.7109375 53.1017092,12.8271484 53.3364097,13.0595703 C53.5711102,13.2919922 53.6884605,13.6041667 53.6884605,13.9960938 L53.6884605,13.9960938 L53.6884605,14.6181641 L52.5605308,14.6181641 C51.8587079,14.6181641 51.2617027,14.7172852 50.7695152,14.9155273 C50.2773277,15.1137695 49.9036297,15.3883464 49.6484214,15.7392578 C49.3932131,16.0901693 49.2656089,16.4980469 49.2656089,16.9628906 C49.2656089,17.6419271 49.4752443,18.1751302 49.8945152,18.5625 C50.313786,18.9498698 50.899398,19.1435547 51.6513511,19.1435547 Z M52.0409995,17.8105469 C51.6992027,17.8105469 51.4371584,17.7330729 51.2548667,17.578125 C51.0725751,17.4231771 50.9814292,17.2021484 50.9814292,16.9150391 C50.9814292,16.5960286 51.1124514,16.3168945 51.3744956,16.0776367 C51.6365399,15.8383789 52.025049,15.71875 52.540023,15.71875 L52.540023,15.71875 L53.6884605,15.71875 L53.6884605,16.9560547 C53.5380698,17.2021484 53.3124839,17.4060872 53.0117027,17.5678711 C52.7109214,17.7296549 52.3873537,17.8105469 52.0409995,17.8105469 Z M62.0932394,11.6035156 L61.9633566,12.5332031 C61.7309347,12.1914062 61.4483826,11.9282227 61.1157003,11.7436523 C60.783018,11.559082 60.3910909,11.4667969 59.9399191,11.4667969 C59.3429138,11.4667969 58.8290792,11.6308594 58.3984151,11.9589844 C57.9677511,12.2871094 57.6373474,12.7451172 57.4072042,13.3330078 C57.177061,13.9208984 57.0619894,14.6090495 57.0619894,15.3974609 L57.0619894,15.3974609 L57.0619894,15.5410156 C57.0619894,16.2565104 57.177061,16.8854167 57.4072042,17.4277344 C57.6373474,17.9700521 57.9700297,18.3916016 58.4052511,18.6923828 C58.8404724,18.9931641 59.3588644,19.1435547 59.9604269,19.1435547 C60.3660258,19.1435547 60.7260519,19.0672201 61.040505,18.9145508 C61.3549581,18.7618815 61.626117,18.5397135 61.8539816,18.2480469 L61.8539816,18.2480469 L61.8539816,18.8291016 C61.8539816,19.398763 61.7229594,19.839681 61.4609151,20.1518555 C61.1988709,20.4640299 60.7852967,20.6201172 60.2201925,20.6201172 C59.9057394,20.6201172 59.5730571,20.5791016 59.2221456,20.4970703 C58.8712342,20.4150391 58.5499451,20.3079427 58.2582784,20.1757812 L58.2582784,20.1757812 L57.9028097,21.4335938 C58.2400493,21.6067708 58.630837,21.7423503 59.075173,21.840332 C59.5195089,21.9383138 59.9239685,21.9873047 60.2885519,21.9873047 C60.9767029,21.9873047 61.5668722,21.8585612 62.0590597,21.6010742 C62.5512472,21.3435872 62.9272237,20.9790039 63.1869894,20.5073242 C63.446755,20.0356445 63.5766378,19.4785156 63.5766378,18.8359375 L63.5766378,18.8359375 L63.576,12.854 L64.4653097,12.6630859 L64.4653097,11.6035156 L62.6196066,11.6035156 L62.0932394,11.6035156 Z M60.4252706,17.7832031 C59.8556092,17.7832031 59.4397563,17.5804036 59.177712,17.1748047 C58.9156678,16.7692057 58.7846456,16.2246094 58.7846456,15.5410156 L58.7846456,15.5410156 L58.7846456,15.3974609 C58.7846456,14.8870443 58.8427511,14.4392904 58.958962,14.0541992 C59.075173,13.6691081 59.255186,13.3683268 59.4990011,13.1518555 C59.7428162,12.9353841 60.0538513,12.8271484 60.4321066,12.8271484 C60.7556743,12.8271484 61.0359477,12.9012044 61.2729269,13.0493164 C61.509906,13.1974284 61.7035909,13.4013672 61.8539816,13.6611328 L61.8539816,13.6611328 L61.8539816,16.9560547 C61.7035909,17.2249349 61.5110454,17.430013 61.2763448,17.5712891 C61.0416443,17.7125651 60.7579529,17.7832031 60.4252706,17.7832031 Z M68.4911766,19.1435547 C69.1975568,19.1435547 69.8048159,18.9840495 70.3129539,18.6650391 C70.821092,18.3460286 71.2118797,17.902832 71.4853172,17.3354492 C71.7587547,16.7680664 71.8954735,16.1152344 71.8954735,15.3769531 L71.8954735,15.3769531 L71.8954735,15.2333984 C71.8954735,14.4951172 71.7587547,13.8434245 71.4853172,13.2783203 C71.2118797,12.7132161 70.8199526,12.2700195 70.309536,11.9487305 C69.7991193,11.6274414 69.1884422,11.4667969 68.4775047,11.4667969 C67.7756818,11.4667969 67.169562,11.6285807 66.6591454,11.9521484 C66.1487287,12.2757161 65.7568016,12.7200521 65.4833641,13.2851562 C65.2099266,13.8502604 65.0732079,14.4996745 65.0732079,15.2333984 L65.0732079,15.2333984 L65.0732079,15.3769531 C65.0732079,16.1152344 65.2099266,16.7680664 65.4833641,17.3354492 C65.7568016,17.902832 66.1487287,18.3460286 66.6591454,18.6650391 C67.169562,18.9840495 67.7802391,19.1435547 68.4911766,19.1435547 Z M68.4911766,17.8173828 C68.1083641,17.8173828 67.790493,17.7137044 67.5375633,17.5063477 C67.2846336,17.2989909 67.0977847,17.0118815 66.9770164,16.6450195 C66.8562482,16.2781576 66.7958641,15.8554688 66.7958641,15.3769531 L66.7958641,15.3769531 L66.7958641,15.2333984 C66.7958641,14.7594401 66.8562482,14.3401693 66.9770164,13.9755859 C67.0977847,13.6110026 67.2834943,13.3238932 67.5341454,13.1142578 C67.7847964,12.9046224 68.0992495,12.7998047 68.4775047,12.7998047 C68.8648745,12.7998047 69.1838849,12.9046224 69.434536,13.1142578 C69.685187,13.3238932 69.872036,13.6110026 69.9950829,13.9755859 C70.1181297,14.3401693 70.1796532,14.7594401 70.1796532,15.2333984 L70.1796532,15.2333984 L70.1796532,15.3769531 C70.1796532,15.8554688 70.1181297,16.2781576 69.9950829,16.6450195 C69.872036,17.0118815 69.6863263,17.2989909 69.4379539,17.5063477 C69.1895816,17.7137044 68.8739891,17.8173828 68.4911766,17.8173828 Z M76.488238,19 L76.488238,17.9472656 L75.5517145,17.7421875 L75.5517145,13.6679688 C75.7066625,13.4036458 75.9083226,13.1974284 76.156695,13.0493164 C76.4050674,12.9012044 76.6955947,12.8271484 77.028277,12.8271484 C77.4703343,12.8271484 77.8030166,12.9444987 78.0263239,13.1791992 C78.2496312,13.4138997 78.3612849,13.8115234 78.3612849,14.3720703 L78.3612849,14.3720703 L78.3612849,17.7421875 L77.3974177,17.9472656 L77.3974177,19 L81.1093317,19 L81.1093317,17.9472656 L80.0839411,17.7421875 L80.0839411,14.3583984 C80.0839411,13.3649089 79.872027,12.6346029 79.4481989,12.1674805 C79.0243708,11.7003581 78.4319229,11.4667969 77.6708552,11.4667969 C77.2060114,11.4667969 76.7901585,11.5727539 76.4232966,11.784668 C76.0564346,11.996582 75.7499567,12.2939453 75.503863,12.6767578 L75.503863,12.6767578 L75.4149958,11.6035156 L72.7489802,11.6035156 L72.7489802,12.6630859 L73.8290583,12.8681641 L73.8290583,17.7421875 L72.8036677,17.9472656 L72.8036677,19 L76.488238,19 Z" id="aktagon" fill="#00003F" fill-rule="nonzero"></path>
            <circle id="Oval" stroke="#00003F" fill-opacity="0" fill="#222222" cx="11" cy="12" r="8.5"></circle>
            <path d="M9.1953125,19 L9.1953125,17.6328125 L8.40625,17.4921875 L8.90625,15.9296875 L12.90625,15.9296875 L13.40625,17.4921875 L12.6171875,17.6328125 L12.6171875,19 L16.4921875,19 L16.4921875,17.6328125 L15.6796875,17.515625 L12.0859375,7.625 L9.75,7.625 L6.1328125,17.515625 L5.3203125,17.6328125 L5.3203125,19 L9.1953125,19 Z M12.3671875,14.25 L9.4453125,14.25 L10.765625,10.375 L10.8828125,10.0078125 L10.9296875,10.0078125 L11.0390625,10.3515625 L12.3671875,14.25 Z" id="A" fill="#00003F" fill-rule="nonzero"></path>
        </g>
    </g>
</svg>