<?xml version="1.0" encoding="UTF-8"?>
<svg width="130px" height="41px" viewBox="0 0 130 41" version="1.1" xmlns="http://www.w3.org/2000/svg" xmlns:xlink="http://www.w3.org/1999/xlink">
    <title>aktagon-logo</title>
    <defs>
        <linearGradient x1="34.4632945%" y1="22.1326425%" x2="57.1297326%" y2="67.6249664%" id="linearGradient-1">
            <stop stop-color="#01FCFF" offset="0%"></stop>
            <stop stop-color="#01F4FF" offset="11.12%"></stop>
            <stop stop-color="#01DFFF" offset="28.12%"></stop>
            <stop stop-color="#01BCFF" offset="48.9%"></stop>
            <stop stop-color="#008CFF" offset="72.64%"></stop>
            <stop stop-color="#004FFF" offset="98.59%"></stop>
            <stop stop-color="#004BFF" offset="100%"></stop>
        </linearGradient>
        <linearGradient x1="60.2030823%" y1="10.5754189%" x2="47.3416342%" y2="66.0074428%" id="linearGradient-2">
            <stop stop-color="#01FCFF" offset="0%"></stop>
            <stop stop-color="#004BFF" offset="100%"></stop>
        </linearGradient>
        <linearGradient x1="-16.1402842%" y1="30.2491947%" x2="53.311368%" y2="56.0855028%" id="linearGradient-3">
            <stop stop-color="#01FCFF" offset="0%"></stop>
            <stop stop-color="#004BFF" offset="100%"></stop>
        </linearGradient>
    </defs>
    <g id="Page-1" stroke="none" stroke-width="1" fill="none" fill-rule="evenodd">
        <g id="aktagon-(with-BG)" transform="translate(-1258.000000, -625.000000)" fill-rule="nonzero">
            <g id="Group" transform="translate(1258.000000, 625.000000)">
                <g transform="translate(37.000000, 10.000000)" fill="#222222">
                    <path d="M0,16.313245 L4.5704955,0.0417218543 L8.90870871,0.0417218543 L13.4518769,16.313245 L10.9172673,16.313245 L9.86516517,12.4748344 L3.60720721,12.4748344 L2.55510511,16.313245 L0,16.313245 Z M4.22207207,10.1523179 L9.24346847,10.1523179 L6.91381381,1.59933775 L6.55172673,1.59933775 L4.22207207,10.1523179 Z" id="Shape"></path>
                    <polygon id="Path" points="15.6858859 16.313245 15.6858859 0.0417218543 18.036036 0.0417218543 18.036036 9.31788079 18.3981231 9.31788079 22.8251502 4.85364238 25.9541291 4.85364238 20.270045 10.4096026 26.1385886 16.313245 23.0301051 16.313245 18.3912913 11.55 18.0292042 11.55 18.0292042 16.313245"></polygon>
                    <path d="M32.4921922,16.313245 C31.809009,16.313245 31.2624625,16.1046358 30.8593844,15.6874172 C30.4563063,15.2701987 30.2513514,14.7139073 30.2513514,14.0115894 L30.2513514,6.87715232 L27.1428679,6.87715232 L27.1428679,4.85364238 L30.2513514,4.85364238 L30.2513514,1.06390728 L32.6015015,1.06390728 L32.6015015,4.85364238 L35.9559309,4.85364238 L35.9559309,6.87715232 L32.6015015,6.87715232 L32.6015015,13.5943709 C32.6015015,14.0602649 32.8132883,14.2897351 33.2436937,14.2897351 L35.5938438,14.2897351 L35.5938438,16.313245 L32.4921922,16.313245 Z" id="Path"></path>
                    <path d="M42.2002252,16.6331126 C41.3940691,16.6331126 40.6767267,16.4940397 40.0413664,16.215894 C39.406006,15.9377483 38.9072823,15.5274834 38.5315315,14.9850993 C38.1557808,14.4427152 37.9713213,13.7821192 37.9713213,13.0102649 C37.9713213,12.2175497 38.1557808,11.5639073 38.5315315,11.0493377 C38.9072823,10.5278146 39.4128378,10.1384106 40.0618619,9.87417219 C40.7108859,9.60993377 41.4418919,9.47781457 42.2685435,9.47781457 L45.6912913,9.47781457 L45.6912913,8.73377483 C45.6912913,8.06622517 45.4931682,7.5307947 45.0969219,7.12748344 C44.7006757,6.72417219 44.0926426,6.52251656 43.2728228,6.52251656 C42.4666667,6.52251656 41.8518018,6.71721854 41.4213964,7.10662252 C40.9978228,7.49602649 40.7108859,7.99668874 40.5742492,8.61556291 L38.3812312,7.89238411 C38.5656907,7.27350993 38.8594595,6.7102649 39.2625375,6.20960265 C39.6656156,5.7089404 40.2053303,5.2986755 40.8748498,4.99271523 C41.5443694,4.67980132 42.3505255,4.52682119 43.2933183,4.52682119 C44.7553303,4.52682119 45.9030781,4.90927152 46.7433934,5.66721854 C47.5837087,6.42516556 48.0004505,7.50298013 48.0004505,8.90066225 L48.0004505,13.6221854 C48.0004505,14.0880795 48.2122372,14.3175497 48.6426426,14.3175497 L49.5990991,14.3175497 L49.5990991,16.313245 L47.8433183,16.313245 C47.3104354,16.313245 46.8731982,16.1741722 46.5384384,15.8960265 C46.2036787,15.6178808 46.0328829,15.2354305 46.0328829,14.7556291 L46.0328829,14.6860927 L45.6912913,14.6860927 C45.5683183,14.9155629 45.3838589,15.186755 45.1447447,15.4996689 C44.8987988,15.8125828 44.5435435,16.0768212 44.0721471,16.2993377 C43.6007508,16.5218543 42.9722222,16.6331126 42.2002252,16.6331126 Z M42.5418168,14.6582781 C43.4846096,14.6582781 44.2497748,14.3801325 44.8236486,13.8307947 C45.4043544,13.281457 45.6912913,12.5235099 45.6912913,11.5639073 L45.6912913,11.3344371 L42.4051802,11.3344371 C41.7834835,11.3344371 41.2779279,11.4735099 40.8953453,11.7377483 C40.5127628,12.0089404 40.3214715,12.405298 40.3214715,12.9337748 C40.3214715,13.4622517 40.5195946,13.8794702 40.9158408,14.1854305 C41.3120871,14.505298 41.8518018,14.6582781 42.5418168,14.6582781 Z" id="Shape"></path>
                    <path d="M51.0611111,10.6390728 L51.0611111,10.2913907 C51.0611111,9.08145695 51.3002252,8.05231788 51.7784535,7.19701987 C52.2566817,6.34172185 52.892042,5.68807947 53.6845345,5.22218543 C54.477027,4.75629139 55.3446697,4.52682119 56.2874625,4.52682119 C57.3805556,4.52682119 58.2277027,4.73543046 58.8084084,5.15264901 C59.3959459,5.56986755 59.8263514,6.0218543 60.0996246,6.50165563 L60.4617117,6.50165563 L60.4617117,4.85364238 L62.7435435,4.85364238 L62.7435435,18.6635762 C62.7435435,19.3589404 62.5385886,19.9221854 62.1355105,20.339404 C61.7324324,20.7566225 61.1790541,20.9652318 60.4822072,20.9652318 L52.8988739,20.9652318 L52.8988739,18.8721854 L59.7512012,18.8721854 C60.1952703,18.8721854 60.4138889,18.6427152 60.4138889,18.1768212 L60.4138889,14.5261589 L60.0518018,14.5261589 C59.881006,14.8043046 59.6487237,15.089404 59.3412913,15.3884106 C59.0338589,15.6804636 58.6376126,15.9238411 58.1457207,16.1115894 C57.6538288,16.2993377 57.0321321,16.3897351 56.2874625,16.3897351 C55.3446697,16.3897351 54.4701952,16.1602649 53.6708709,15.7013245 C52.8715465,15.2423841 52.2361862,14.5887417 51.7647898,13.7264901 C51.2933934,12.8572848 51.0611111,11.8350993 51.0611111,10.6390728 Z M56.9296547,14.2897351 C57.9475976,14.2897351 58.7879129,13.9629139 59.4506006,13.3023179 C60.1132883,12.6417219 60.4412162,11.7307947 60.4412162,10.5695364 L60.4412162,10.3609272 C60.4412162,9.16490066 60.1132883,8.24701987 59.4574324,7.60728477 C58.8015766,6.96754967 57.9544294,6.64072848 56.9228228,6.64072848 C55.9185435,6.64072848 55.0850601,6.96059603 54.4223724,7.60728477 C53.7596847,8.24701987 53.4317568,9.1718543 53.4317568,10.3609272 L53.4317568,10.5695364 C53.4317568,11.7307947 53.7596847,12.6417219 54.4223724,13.3023179 C55.0918919,13.9629139 55.9253754,14.2897351 56.9296547,14.2897351 Z" id="Shape"></path>
                    <path d="M71.4951201,16.6331126 C70.3678679,16.6331126 69.3704204,16.3966887 68.4891141,15.9238411 C67.6146396,15.4509934 66.9246246,14.7764901 66.4259009,13.8933775 C65.9203453,13.0102649 65.6743994,11.9672185 65.6743994,10.7572848 L65.6743994,10.4096026 C65.6743994,9.19966887 65.9271772,8.15662252 66.4259009,7.28046358 C66.9314565,6.40430464 67.6146396,5.72980132 68.4891141,5.25 C69.3635886,4.77019868 70.3678679,4.52682119 71.4951201,4.52682119 C72.6223724,4.52682119 73.6266517,4.77019868 74.507958,5.25 C75.3892643,5.72980132 76.0861111,6.41125828 76.5848348,7.28046358 C77.0903904,8.15662252 77.3363363,9.19966887 77.3363363,10.4096026 L77.3363363,10.7572848 C77.3363363,11.9672185 77.0835586,13.0102649 76.5848348,13.8933775 C76.0792793,14.7764901 75.3892643,15.457947 74.507958,15.9238411 C73.6266517,16.3966887 72.6223724,16.6331126 71.4951201,16.6331126 Z M71.4951201,14.4983444 C72.5335586,14.4983444 73.3738739,14.1645695 74.0160661,13.4900662 C74.6650901,12.8155629 74.9861862,11.8837748 74.9861862,10.6877483 L74.9861862,10.4791391 C74.9861862,9.28311258 74.6650901,8.3513245 74.0297297,7.67682119 C73.3875375,7.00231788 72.5472222,6.66854305 71.4951201,6.66854305 C70.4771772,6.66854305 69.6436937,7.00231788 68.9946697,7.67682119 C68.3456456,8.3513245 68.0245495,9.28311258 68.0245495,10.4791391 L68.0245495,10.6877483 C68.0245495,11.8837748 68.3456456,12.8155629 68.9946697,13.4900662 C69.6436937,14.1576159 70.4771772,14.4983444 71.4951201,14.4983444 Z" id="Shape"></path>
                    <path d="M80.2671922,16.313245 L80.2671922,4.85364238 L82.5763514,4.85364238 L82.5763514,6.57119205 L82.9384384,6.57119205 C83.1502252,6.10529801 83.5328078,5.67417219 84.0793544,5.27086093 C84.6259009,4.86754967 85.4388889,4.66589404 86.5251502,4.66589404 C87.3791291,4.66589404 88.1374625,4.86059603 88.8001502,5.25 C89.4628378,5.63940397 89.9820571,6.18178808 90.3646396,6.8910596 C90.7472222,7.59337748 90.9385135,8.44172185 90.9385135,9.43609272 L90.9385135,16.313245 L88.5883634,16.313245 L88.5883634,9.61688742 C88.5883634,8.62251656 88.3424174,7.89238411 87.8573574,7.41953642 C87.3722973,6.94668874 86.7027778,6.7102649 85.8487988,6.7102649 C84.8718468,6.7102649 84.093018,7.03708609 83.5054805,7.68377483 C82.9179429,8.33741722 82.6241742,9.28311258 82.6241742,10.5208609 L82.6241742,16.3062914 L80.2671922,16.3062914 L80.2671922,16.313245 Z" id="Path"></path>
                </g>
                <g transform="translate(2.000000, 3.000000)" id="Path">
                    <path d="M14.5136792,0.0268199234 C13.2209906,1.31417625 12.0035377,2.66858238 10.8681604,4.06992337 C10.7997642,4.15708812 10.7245283,4.24425287 10.6561321,4.33812261 C7.92028302,7.77777778 5.66320755,11.539272 3.91910377,15.5823755 C1.66886792,20.7921456 0.3625,26.2768199 0.0136792453,31.9224138 C0.0136792453,31.9492337 0.00683962264,31.9760536 0.00683962264,32.0028736 C0.00683962264,32.0431034 0.00683962264,32.0900383 0.00683962264,32.1302682 C0.00683962264,33.6522989 1.27900943,34.9664751 2.92051887,34.9664751 C4.24740566,34.9664751 5.41014151,34.0948276 5.7384434,32.8342912 C5.75896226,32.7605364 5.77948113,32.6934866 5.8,32.6197318 C5.99834906,29.032567 6.62759434,25.559387 7.65353774,22.2471264 C7.6740566,22.1733716 7.70141509,22.0996169 7.72193396,22.0258621 C9.22665094,17.2250958 11.545283,12.7729885 14.5205189,8.82375479 C14.6025943,8.7164751 15.2318396,7.89176245 15.4575472,7.61685824 C16.3945755,6.48371648 17.3384434,5.37739464 18.3712264,4.34482759 C17.7625,3.52681992 15.8337264,1.32088123 14.5136792,0.0268199234 Z" fill="url(#linearGradient-1)"></path>
                    <path d="M28.9726415,31.9827586 C28.9726415,31.9760536 28.9726415,31.9626437 28.9726415,31.9559387 C28.6306604,26.2835249 27.3174528,20.7720307 25.0603774,15.5354406 C23.7882075,12.591954 22.2492925,9.79597701 20.4436321,7.16091954 C19.2877358,8.34099617 17.4410377,10.5804598 16.5860849,11.8477011 C18.5695755,15.0057471 20.1563679,18.4185824 21.2849057,22.032567 C21.3054245,22.0862069 21.3191038,22.1398467 21.332783,22.1934866 C22.3587264,25.5191571 22.9948113,29.0057471 23.1863208,32.6063218 C23.2068396,32.6800766 23.2273585,32.7605364 23.2478774,32.8342912 C23.5693396,34.0948276 24.7389151,34.9664989 26.0589623,34.9664989 C27.7620283,34.9731801 29.0615566,33.5651341 28.9726415,31.9827586 Z" fill="url(#linearGradient-2)"></path>
                    <path d="M26.0658019,34.9731801 C24.7389151,34.9731801 23.5761792,34.1015326 23.254717,32.8409962 C23.2341981,32.7672414 23.2136792,32.6867816 23.1931604,32.6130268 C22.1330189,28.8716475 18.6037736,26.1226054 14.4931604,26.1226054 C10.3825472,26.1226054 6.85330189,28.8917625 5.79316038,32.6264368 C5.77264151,32.7001916 5.75212264,32.7672414 5.73160377,32.8409962 C5.41014151,34.1015326 4.24056604,34.9731801 2.91367925,34.9731801 C1.27216981,34.9731801 -7.77575069e-15,33.6590038 -7.77575069e-15,32.1369732 C-7.77575069e-15,32.0967433 -7.77575069e-15,32.0498084 -7.77575069e-15,32.0095785 C-7.77575069e-15,31.9827586 0.00683962264,31.9559387 0.00683962264,31.9291188 C0.0205188679,31.7749042 0.0410377358,31.6139847 0.0820754717,31.4597701 C0.725,28.9185824 2.05872642,26.591954 3.99433962,24.6944444 C5.0134434,23.6954023 6.14882075,22.8639847 7.37311321,22.2068966 C7.48254717,22.1465517 7.59198113,22.0929119 7.70825472,22.032567 C9.78066038,20.98659 12.0924528,20.4300766 14.4863208,20.4300766 C16.8870283,20.4300766 19.2056604,20.98659 21.2849057,22.039272 C21.3875,22.0929119 21.496934,22.1465517 21.5995283,22.2001916 C22.8238208,22.8572797 23.9660377,23.6954023 24.9783019,24.6877395 C26.9139151,26.585249 28.2476415,28.9118774 28.890566,31.4530651 C28.9316038,31.6206897 28.9589623,31.7883142 28.9726415,31.9559387 C28.9726415,31.9626437 28.9726415,31.9760536 28.9726415,31.9827586 C29.0615566,33.5651341 27.7620283,34.9731801 26.0658019,34.9731801 Z" fill="url(#linearGradient-3)"></path>
                </g>
            </g>
        </g>
    </g>
</svg>